<?xml version="1.0" encoding="UTF-8"?>
<svg width="57px" height="50px" viewBox="0 0 57 50" version="1.1" xmlns="http://www.w3.org/2000/svg" xmlns:xlink="http://www.w3.org/1999/xlink">
    <title>C14197AD-F8C6-4A58-944B-96571CB8A7AF</title>
    <defs>
        <polygon id="path-1" points="3.34637965e-05 0.0175667622 56.9958728 0.0175667622 56.9958728 38.9761086 3.34637965e-05 38.9761086"></polygon>
    </defs>
    <g id="Page-1" stroke="none" stroke-width="1" fill="none" fill-rule="evenodd">
        <g id="dashboard-property" transform="translate(-1502.000000, -2004.000000)">
            <g id="Group-95" transform="translate(1241.000000, 1819.000000)">
                <g id="Group-6" transform="translate(261.000000, 185.000000)">
                    <g id="Group-3">
                        <mask id="mask-2" fill="white">
                            <use xlink:href="#path-1"></use>
                        </mask>
                        <g id="Clip-2"></g>
                        <path d="M28.2774992,0.0175667622 L28.7227908,0.0175667622 C28.8273094,0.0493031519 28.9299317,0.0953432665 29.0367928,0.110652722 C31.2441763,0.425558166 32.6883622,2.53893352 32.1895286,4.71824011 C31.9679982,5.6864235 31.4089297,6.42217135 30.5944209,7.0145467 C33.8844699,12.4778991 37.1539943,17.9068332 40.4366812,23.3577817 C43.4260022,21.6078103 46.3703701,19.8895754 49.3017986,18.1494378 C49.4300765,18.0733375 49.5213211,17.7816756 49.490646,17.6161771 C49.3324738,16.7629822 49.4178065,15.9453232 49.8015247,15.1754923 C50.6218339,13.5297817 52.4432683,12.691561 54.1279474,13.1588905 C55.9072174,13.6525926 57.087374,15.2313662 56.990329,16.9881542 C56.8862566,18.8733404 55.5485971,20.3345553 53.6490804,20.5710138 C53.1705481,20.6305754 52.987055,20.8097072 52.8602272,21.2752487 C51.2955716,27.0176355 49.7000178,32.7516413 48.1269963,38.4917931 C48.0328515,38.8351943 47.9113779,38.9761086 47.536918,38.9761086 C34.8500119,38.966945 22.1629943,38.9671685 9.47597671,38.9754378 C9.11311761,38.9756613 8.96933483,38.8603375 8.87485538,38.5044206 C8.34635049,36.5154206 7.78505108,34.5352487 7.23802955,32.5511656 C6.18827025,28.7438046 5.13583386,24.9373375 4.09968317,21.1262888 C4.00252661,20.7691427 3.85093562,20.6332573 3.47413327,20.585988 C3.00508239,20.5269851 2.52710783,20.3942287 2.09709804,20.1969937 C0.909802544,19.6524464 0.335563796,18.6148676 3.34637965e-05,17.4111198 L3.34637965e-05,16.2962115 C0.0351704501,16.192286 0.074434638,16.0894779 0.104886693,15.9842115 C0.711473777,13.8850281 2.62549139,12.6606069 4.58903542,13.1168734 C6.68431526,13.603647 7.84852074,15.4432401 7.50038571,17.6723862 C7.47595714,17.828945 7.61315871,18.0887587 7.75337202,18.179498 C8.37501781,18.5822372 9.02521937,18.9406126 9.66504716,19.3151914 C11.9499552,20.6534837 14.2347517,21.9918877 16.5669552,23.3577817 C19.851873,17.905157 23.1217321,12.4775639 26.3993994,7.03689628 C26.2647634,6.9131914 26.1603564,6.81116562 26.0495912,6.71629169 C24.4539258,5.3482745 24.2640746,3.05576734 25.593145,1.4300596 C26.2941,0.57250659 27.2403446,0.216701433 28.2774992,0.0175667622" id="Fill-1" fill="#FF8B00" mask="url(#mask-2)"></path>
                    </g>
                    <path d="M28.5576877,44.0021941 C34.5167494,44.0021941 40.4755879,44.004804 46.434538,44 C47.7264586,43.9990622 48.8140334,44.378127 49.5125588,45.4439139 C50.8202155,47.4391456 49.359439,49.8467447 46.7666696,49.9927958 C46.6370981,50.0001036 46.506857,49.9964497 46.3769507,49.9964497 C34.459162,49.9965541 22.5413734,49.994153 10.6234732,50 C9.31191042,50.0006256 8.19911326,49.640561 7.49266396,48.5526419 C6.86813152,47.591043 6.83253005,46.578916 7.41353717,45.5809869 C8.06697488,44.4588257 9.13903681,44.0068919 10.4581886,44.0041776 C13.2241664,43.998227 15.9902558,44.0021941 18.7562337,44.0020897 C22.0233106,44.0020897 25.2906107,44.0020897 28.5576877,44.0021941" id="Fill-4" fill="#FF8B00"></path>
                </g>
            </g>
        </g>
    </g>
</svg>