<?xml version="1.0" encoding="UTF-8"?>
<svg width="46px" height="46px" viewBox="0 0 46 46" version="1.1" xmlns="http://www.w3.org/2000/svg" xmlns:xlink="http://www.w3.org/1999/xlink">
    <title>Group 6</title>
    <defs>
        <filter id="filter-1">
            <feColorMatrix in="SourceGraphic" type="matrix" values="0 0 0 0 1.000000 0 0 0 0 1.000000 0 0 0 0 1.000000 0 0 0 1.000000 0"></feColorMatrix>
        </filter>
        <polygon id="path-2" points="0 7e-05 13.3567 7e-05 13.3567 24.93799 0 24.93799"></polygon>
    </defs>
    <g id="Symbols" stroke="none" stroke-width="1" fill="none" fill-rule="evenodd">
        <g id="footer" transform="translate(-389.000000, -375.000000)">
            <g id="Group-23" transform="translate(0.000000, 5.000000)">
                <g id="Group-21" transform="translate(389.000000, 370.000000)">
                    <circle id="Oval-Copy" fill="#001950" cx="23" cy="23" r="23"></circle>
                    <g filter="url(#filter-1)" id="Group-3">
                        <g transform="translate(16.000000, 10.000000)">
                            <mask id="mask-3" fill="white">
                                <use xlink:href="#path-2"></use>
                            </mask>
                            <g id="Clip-2"></g>
                            <path d="M12.4817,15.028 L13.174,10.5144 L8.8438,10.5144 L8.8438,7.5863 C8.8438,6.3508 9.4486,5.1475 11.3883,5.1475 L13.3574,5.1475 L13.3574,1.3052 C13.3574,1.3052 11.5703,1 9.8623,1 C6.2958,1 3.9648,3.1616 3.9648,7.0746 L3.9648,10.5144 L0,10.5144 L0,15.028 L3.9648,15.028 L3.9648,25.9382 L8.8438,25.9382 L8.8438,15.028 L12.4817,15.028 Z" id="Fill-1" fill="#000000" mask="url(#mask-3)"></path>
                        </g>
                    </g>
                </g>
            </g>
        </g>
    </g>
</svg>