<?xml version="1.0" encoding="UTF-8"?>
<svg width="26px" height="20px" viewBox="0 0 26 20" version="1.1" xmlns="http://www.w3.org/2000/svg" xmlns:xlink="http://www.w3.org/1999/xlink">
    <title>E352DE4B-A128-40F1-BEEE-24C5D196D387</title>
    <defs>
        <polygon id="path-1" points="0 0.000190249786 25.27896 0.000190249786 25.27896 19.632256 0 19.632256"></polygon>
    </defs>
    <g id="Page-1" stroke="none" stroke-width="1" fill="none" fill-rule="evenodd">
        <g id="dashboard-property" transform="translate(-710.000000, -3409.000000)">
            <g id="Group-98" transform="translate(665.000000, 3408.000000)">
                <g id="Group-3" transform="translate(45.000000, 1.000000)">
                    <mask id="mask-2" fill="white">
                        <use xlink:href="#path-1"></use>
                    </mask>
                    <g id="Clip-2"></g>
                    <path d="M25.188576,8.661968 L22.619856,1.136688 C22.360016,0.373968 21.598416,-0.090272 20.798176,0.015008 L12.922896,1.113728 C12.003376,1.241968 11.362736,2.090928 11.490416,3.009328 C11.619776,3.928848 12.472096,4.570048 13.386576,4.441808 L17.444896,3.875648 L12.591376,10.694208 L9.924096,8.257648 C9.586416,7.949088 9.145696,7.787808 8.680336,7.821968 C8.224496,7.851648 7.800016,8.066688 7.505456,8.417248 L0.394576,16.871008 C-0.202944,17.581088 -0.111664,18.640608 0.598976,19.238128 C0.913696,19.502448 1.297296,19.632368 1.679216,19.632368 C2.158016,19.632368 2.633456,19.429088 2.965536,19.033728 L8.950256,11.918368 L11.726176,14.454608 C12.081776,14.779408 12.558336,14.934528 13.037136,14.884688 C13.515376,14.833728 13.949376,14.580048 14.228256,14.188608 L20.512016,5.361328 L22.008896,9.746688 C22.247456,10.445568 22.899856,10.885168 23.598736,10.885168 C23.778496,10.885168 23.962176,10.856048 24.141376,10.794448 C25.019456,10.494288 25.488176,9.539488 25.188576,8.661968" id="Fill-1" fill="#001950" mask="url(#mask-2)"></path>
                </g>
            </g>
        </g>
    </g>
</svg>