<?xml version="1.0" encoding="UTF-8"?>
<svg width="23px" height="23px" viewBox="0 0 23 23" version="1.1" xmlns="http://www.w3.org/2000/svg" xmlns:xlink="http://www.w3.org/1999/xlink">
    <title>D8B11D5A-7AC7-42AB-8743-45F8AA0DD207</title>
    <defs>
        <polygon id="path-1" points="7.10526316e-05 0.08912475 22.4597368 0.08912475 22.4597368 9.9 7.10526316e-05 9.9"></polygon>
        <polygon id="path-3" points="0.134228824 0.122625 11.5268171 0.122625 11.5268171 4.4133075 0.134228824 4.4133075"></polygon>
        <polygon id="path-5" points="4.73684211e-05 0.0645765517 22.4597368 0.0645765517 22.4597368 7.19729379 4.73684211e-05 7.19729379"></polygon>
    </defs>
    <g id="Page-1" stroke="none" stroke-width="1" fill="none" fill-rule="evenodd">
        <g id="dashboard-property" transform="translate(-1873.000000, -191.000000)">
            <g id="Group-10" transform="translate(1873.000000, 191.500000)">
                <g id="Group-3" transform="translate(0.000000, 11.700000)">
                    <mask id="mask-2" fill="white">
                        <use xlink:href="#path-1"></use>
                    </mask>
                    <g id="Clip-2"></g>
                    <path d="M11.2287553,3.36354975 C10.50165,3.36354975 9.90220263,2.78687475 9.82665,2.04907725 L7.10526322e-05,0.08912475 L7.10526322e-05,7.97917725 C7.10526322e-05,9.03872475 0.821913158,9.90002475 1.83559737,9.90002475 L20.6242816,9.90002475 C21.6377289,9.90002475 22.4598079,9.03872475 22.4598079,7.97917725 L22.4598079,0.08912475 L12.6332289,2.04907725 C12.5572026,2.78687475 11.9582289,3.36354975 11.2287553,3.36354975" id="Fill-1" fill="#F9F9F9" mask="url(#mask-2)"></path>
                </g>
                <g id="Group-6" transform="translate(5.400000, 0.000000)">
                    <mask id="mask-4" fill="white">
                        <use xlink:href="#path-3"></use>
                    </mask>
                    <g id="Clip-5"></g>
                    <path d="M1.74011118,1.6975575 L9.92093471,1.6975575 L9.92093471,4.4133075 L11.5268171,4.4133075 L11.5268171,1.5198075 C11.5268171,0.7503075 10.8890524,0.1225575 10.1044641,0.1225575 L1.55887588,0.1225575 C0.774287647,0.1225575 0.134228824,0.7503075 0.134228824,1.5198075 L0.134228824,4.4133075 L1.74011118,4.4133075 L1.74011118,1.6975575 Z" id="Fill-4" fill="#F9F9F9" mask="url(#mask-4)"></path>
                </g>
                <g id="Group-9" transform="translate(0.000000, 5.400000)">
                    <mask id="mask-6" fill="white">
                        <use xlink:href="#path-5"></use>
                    </mask>
                    <g id="Clip-8"></g>
                    <path d="M20.6242579,0.0645765517 L17.1107053,0.0645765517 L15.4528105,0.0645765517 L7.00702105,0.0645765517 L5.34912632,0.0645765517 L1.83557368,0.0645765517 C0.821889474,0.0645765517 4.73684211e-05,0.926093793 4.73684211e-05,1.98871448 L4.73684211e-05,5.17409379 L10.1106,7.19729379 C10.3689947,6.84499034 10.7739947,6.61905931 11.2287316,6.61905931 C11.6858368,6.61905931 12.0908368,6.84499034 12.3489947,7.19729379 L22.4597842,5.17409379 L22.4597842,1.98871448 C22.4597842,0.926093793 21.6377053,0.0645765517 20.6242579,0.0645765517" id="Fill-7" fill="#7CAEF7" mask="url(#mask-6)"></path>
                </g>
            </g>
        </g>
    </g>
</svg>