<?xml version="1.0" encoding="UTF-8"?>
<svg width="25px" height="25px" viewBox="0 0 25 25" version="1.1" xmlns="http://www.w3.org/2000/svg" xmlns:xlink="http://www.w3.org/1999/xlink">
    <title>F19717B8-146F-4AD7-BB3B-C0A219526FD1</title>
    <defs>
        <polygon id="path-1" points="0 0.167695579 23.3728868 0.167695579 23.3728868 24.2998977 0 24.2998977"></polygon>
    </defs>
    <g id="Page-1" stroke="none" stroke-width="1" fill="none" fill-rule="evenodd">
        <g id="dashboard-property" transform="translate(-1872.000000, -129.000000)">
            <g id="Group-6" transform="translate(1872.000000, 129.000000)">
                <g id="Group-3" transform="translate(0.703125, 0.000000)">
                    <mask id="mask-2" fill="white">
                        <use xlink:href="#path-1"></use>
                    </mask>
                    <g id="Clip-2"></g>
                    <path d="M23.114182,13.1960766 C23.337522,13.1960766 23.455562,12.9356829 23.306322,12.7722335 L17.690062,6.61870611 L11.878802,0.252106105 C11.776102,0.139558737 11.596962,0.139558737 11.494262,0.252106105 L5.683002,6.61870611 L0.066482,12.7722335 C-0.082758,12.9356829 0.035282,13.1960766 0.258882,13.1960766 L3.163342,13.1960766 L3.163342,23.1150808 C3.163342,23.7696461 3.763422,24.2998977 4.503902,24.2998977 L8.712522,24.2998977 L8.712522,16.4108387 C8.712522,16.2397156 8.853702,16.1008219 9.027642,16.1008219 L14.345162,16.1008219 C14.519102,16.1008219 14.660282,16.2397156 14.660282,16.4108387 L14.660282,24.2998977 L18.869162,24.2998977 C19.609642,24.2998977 20.209722,23.7696461 20.209722,23.1150808 L20.209722,13.1960766 L23.114182,13.1960766 Z" id="Fill-1" fill="#FFFFFF" mask="url(#mask-2)"></path>
                </g>
                <path d="M16.003125,1.8 L20.9623521,1.8 C21.205705,1.8 21.403125,1.9769507 21.403125,2.19540834 L21.403125,7.2 L16.003125,1.8 Z" id="Fill-4" fill="#7CAEF7"></path>
            </g>
        </g>
    </g>
</svg>