<?xml version="1.0" encoding="UTF-8"?>
<svg width="24px" height="20px" viewBox="0 0 24 20" version="1.1" xmlns="http://www.w3.org/2000/svg" xmlns:xlink="http://www.w3.org/1999/xlink">
    <title>E92EC923-A2D1-4650-A058-D40901439348</title>
    <defs>
        <polygon id="path-1" points="8.63309424e-13 0.1402775 23.7332353 0.1402775 23.7332353 11.1402775 8.63309424e-13 11.1402775"></polygon>
    </defs>
    <g id="Page-1" stroke="none" stroke-width="1" fill="none" fill-rule="evenodd">
        <g id="dashboard-property" transform="translate(-1873.000000, -312.000000)">
            <g id="Group-13" transform="translate(1873.000000, 312.500000)">
                <g id="Group-3" fill="#FFFFFF">
                    <path d="M23.7333471,1.40493242 L23.7333471,4.788 L0.000111764707,4.788 L0.000111764707,1.40493242 C0.000111764707,0.651135915 0.475111765,0.038 1.05908235,0.038 L22.6740971,0.038 C23.2611412,0.038 23.7333471,0.651135915 23.7333471,1.40493242" id="Fill-1"></path>
                </g>
                <g id="Group-6" transform="translate(0.000000, 6.650000)">
                    <mask id="mask-2" fill="white">
                        <use xlink:href="#path-1"></use>
                    </mask>
                    <g id="Clip-5"></g>
                    <path d="M8.63309424e-13,-0.9499725 L23.7332353,-0.9499725 L23.7332353,10.7358104 C23.7332353,11.460537 23.2610294,12.0500275 22.6739853,12.0500275 L1.05897059,12.0500275 C0.475,12.0500275 8.63309424e-13,11.460537 8.63309424e-13,10.7358104 L8.63309424e-13,-0.9499725 Z" id="Fill-4" fill="#FFFFFF" mask="url(#mask-2)"></path>
                </g>
                <path d="M20.85,12.3498162 C20.85,13.7305586 19.7304763,14.85 18.35,14.85 C16.9691561,14.85 15.85,13.7305586 15.85,12.3498162 C15.85,10.9694414 16.9691561,9.85 18.35,9.85 C19.7304763,9.85 20.85,10.9694414 20.85,12.3498162" id="Fill-7" fill="#7CAEF7"></path>
                <path d="M3.0084212,14.25 L13.7915788,14.25 C13.8514048,14.25 13.9,14.2018364 13.9,14.1425417 L13.9,13.4072443 C13.9,13.3479495 13.8514048,13.3 13.7915788,13.3 L3.0084212,13.3 C2.94859516,13.3 2.9,13.3479495 2.9,13.4072443 L2.9,14.1425417 C2.9,14.2018364 2.94859516,14.25 3.0084212,14.25" id="Fill-9" fill="#7CAEF7"></path>
                <path d="M3.0084212,11.35 L13.7915788,11.35 C13.8514048,11.35 13.9,11.3018364 13.9,11.2425417 L13.9,10.5072443 C13.9,10.4479495 13.8514048,10.4 13.7915788,10.4 L3.0084212,10.4 C2.94859516,10.4 2.9,10.4479495 2.9,10.5072443 L2.9,11.2425417 C2.9,11.3018364 2.94859516,11.35 3.0084212,11.35" id="Fill-11" fill="#7CAEF7"></path>
            </g>
        </g>
    </g>
</svg>