<?xml version="1.0" encoding="UTF-8"?>
<svg width="57px" height="16px" viewBox="0 0 57 16" version="1.1" xmlns="http://www.w3.org/2000/svg" xmlns:xlink="http://www.w3.org/1999/xlink">
    <title>Group 77</title>
    <g id="Page-1" stroke="none" stroke-width="1" fill="none" fill-rule="evenodd">
        <g id="dashboard-property" transform="translate(-931.000000, -994.000000)">
            <g id="Group-102" transform="translate(634.000000, 589.000000)">
                <g id="Group-88" transform="translate(0.000000, 40.000000)">
                    <g id="Group-80-Copy" transform="translate(325.500000, 274.500000) scale(-1, 1) translate(-325.500000, -274.500000) translate(297.000000, 70.000000)">
                        <g id="Group-77" transform="translate(28.500000, 303.000000) scale(-1, 1) translate(-28.500000, -303.000000) translate(0.000000, 295.000000)">
                            <rect id="Rectangle" fill="#FF2D00" x="0" y="4.75" width="3" height="7" rx="1.5"></rect>
                            <rect id="Rectangle-Copy-2" fill="#FF5900" x="7" y="4.75" width="3" height="7" rx="1.5"></rect>
                            <rect id="Rectangle-Copy-3" fill="#FF8B00" x="13" y="4.75" width="3" height="7" rx="1.5"></rect>
                            <rect id="Rectangle-Copy-56" fill="#FFAD4B" x="20" y="4.75" width="3" height="7" rx="1.5"></rect>
                            <rect id="Rectangle-Copy-57" fill="#074CAE" x="27" y="0.75" width="3" height="15" rx="1.5"></rect>
                            <rect id="Rectangle-Copy-58" fill="#3071CD" x="34" y="4.75" width="3" height="7" rx="1.5"></rect>
                            <rect id="Rectangle-Copy-59" fill="#5D9BF3" x="41" y="4.75" width="3" height="7" rx="1.5"></rect>
                            <rect id="Rectangle-Copy-60" fill="#83B6FF" x="47" y="4.75" width="3" height="7" rx="1.5"></rect>
                            <rect id="Rectangle-Copy-61" fill="#83B6FF" x="54" y="4.75" width="3" height="7" rx="1.5"></rect>
                        </g>
                    </g>
                </g>
            </g>
        </g>
    </g>
</svg>