<?xml version="1.0" encoding="UTF-8"?>
<svg width="25px" height="24px" viewBox="0 0 25 24" version="1.1" xmlns="http://www.w3.org/2000/svg" xmlns:xlink="http://www.w3.org/1999/xlink">
    <title>2B9817A0-F50D-43BE-8DCB-A57AEEFD5832</title>
    <g id="Page-1" stroke="none" stroke-width="1" fill="none" fill-rule="evenodd">
        <g id="dashboard-property" transform="translate(-1872.000000, -251.000000)">
            <g id="Group-101" transform="translate(1872.000000, 251.000000)">
                <circle id="Oval" fill="#7CAEF7" cx="12.3067594" cy="5.5" r="5.5"></circle>
                <path d="M12.8065446,13 C18.1236978,13 22.7077739,16.0029601 24.8071042,20.3329542 C21.4221594,22.6419189 17.2801182,24 12.8065446,24 C8.33255925,24 4.19016725,22.6416688 0.805308901,20.3325291 C2.90531534,16.0029601 7.48939136,13 12.8065446,13 Z" id="Combined-Shape" fill="#FFFFFF"></path>
                <circle id="Oval" fill="#7CAEF7" cx="12.3067594" cy="5.5" r="5.5"></circle>
                <path d="M12.8065446,13 C18.1236978,13 22.7077739,16.0029601 24.8071042,20.3329542 C21.4221594,22.6419189 17.2801182,24 12.8065446,24 C8.33255925,24 4.19016725,22.6416688 0.805308901,20.3325291 C2.90531534,16.0029601 7.48939136,13 12.8065446,13 Z" id="Combined-Shape" fill="#FFFFFF"></path>
            </g>
        </g>
    </g>
</svg>