<?xml version="1.0" encoding="UTF-8"?>
<svg width="22px" height="22px" viewBox="0 0 22 22" version="1.1" xmlns="http://www.w3.org/2000/svg" xmlns:xlink="http://www.w3.org/1999/xlink">
    <title>A8527566-86E0-4EDD-8784-BB411A9FCDC7</title>
    <defs>
        <polygon id="path-1" points="0.306465517 0.282533285 8.97113793 0.282533285 8.97113793 10.8968569 0.306465517 10.8968569"></polygon>
        <polygon id="path-3" points="3.18181818e-05 0.0738707402 20.8984936 0.0738707402 20.8984936 22 3.18181818e-05 22"></polygon>
    </defs>
    <g id="Page-1" stroke="none" stroke-width="1" fill="none" fill-rule="evenodd">
        <g id="dashboard-property" transform="translate(-764.000000, -3408.000000)">
            <g id="Group-98" transform="translate(665.000000, 3408.000000)">
                <g id="Group-84" transform="translate(99.000000, 0.000000)">
                    <g id="Group-7" transform="translate(0.000000, 0.000000)">
                        <g id="Group-3" transform="translate(13.000000, 0.000000)">
                            <mask id="mask-2" fill="white">
                                <use xlink:href="#path-1"></use>
                            </mask>
                            <g id="Clip-2"></g>
                            <path d="M0.306465517,8.71715429 L0.306465517,0.696897143 C0.306465517,0.464325714 0.495775862,0.271982857 0.72512069,0.282982857 C5.2875,0.507382857 8.9712931,4.37592571 8.9712931,9.04778286 C8.9712931,9.55064 8.92846552,10.0525543 8.84374138,10.5475543 C8.80339655,10.7832686 8.57994828,10.9391543 8.34967241,10.8866686 L0.624568966,9.12038286 C0.438672414,9.07764 0.306465517,8.91044 0.306465517,8.71715429" id="Fill-1" fill="#7CAEF7" mask="url(#mask-2)"></path>
                        </g>
                        <g id="Group-6">
                            <mask id="mask-4" fill="white">
                                <use xlink:href="#path-3"></use>
                            </mask>
                            <g id="Clip-5"></g>
                            <path d="M20.5711227,13.3773463 C20.7998955,13.431197 20.9456227,13.6702418 20.8845318,13.9040328 C19.6369409,18.6484806 15.4245318,22.0000328 10.6276227,22.0000328 C4.79725909,22.0000328 3.1818181e-05,17.0490478 3.1818181e-05,11.0325403 C3.1818181e-05,5.16412239 4.56435,0.30901791 10.19935,0.074241791 C10.43385,0.0640626866 10.6276227,0.264689552 10.6276227,0.50701791 L10.6276227,10.6884209 C10.6276227,10.8897045 10.7625318,11.064391 10.9528045,11.1093761 L20.5711227,13.3773463 Z" id="Fill-4" fill="#001950" mask="url(#mask-4)"></path>
                        </g>
                    </g>
                </g>
            </g>
        </g>
    </g>
</svg>