<?xml version="1.0" encoding="UTF-8"?>
<svg width="17px" height="22px" viewBox="0 0 17 22" version="1.1" xmlns="http://www.w3.org/2000/svg" xmlns:xlink="http://www.w3.org/1999/xlink">
    <title>8AB52417-5E1C-457F-AD9D-048AAA25ADED</title>
    <g id="Page-1" stroke="none" stroke-width="1" fill="none" fill-rule="evenodd">
        <g id="dashboard-property" transform="translate(-1704.000000, -894.000000)">
            <g id="Group-102" transform="translate(634.000000, 589.000000)">
                <g id="Group-2" transform="translate(1070.000000, 306.000000)">
                    <g id="Group-104" transform="translate(0.125418, 1.379165)">
                        <polygon id="Rectangle" fill="#001950" transform="translate(8.024827, 9.473305) rotate(-330.000000) translate(-8.024827, -9.473305) " points="3.42786994 6.82140043 8.09564653 1.75106168 12.5880431 6.85139265 12.6217844 17.1955485 3.46161119 17.1655563"></polygon>
                        <ellipse id="Oval" fill="#FFFFFF" transform="translate(9.471528, 6.931930) rotate(-330.000000) translate(-9.471528, -6.931930) " cx="9.47152817" cy="6.93192964" rx="1.43128489" ry="1.43669612"></ellipse>
                    </g>
                    <path d="M13.0555548,8.37916512 C13.7053833,8.03222093 14.2729274,7.44591878 14.6560008,6.65298083 C15.6223377,4.65272364 15.0488704,2.0950047 13.3751257,0.940155675 C11.701381,-0.214693349 9.56117195,0.470645376 8.59483499,2.47090256 C7.69504134,4.33341926 8.1302874,6.67926595 9.54573658,7.92583754 C9.65041465,8.01802644 9.76045364,8.10420321 9.87571003,8.18372771" id="Path" stroke="#7CAEF7"></path>
                </g>
            </g>
        </g>
    </g>
</svg>