<?xml version="1.0" encoding="UTF-8"?>
<svg width="22px" height="25px" viewBox="0 0 22 25" version="1.1" xmlns="http://www.w3.org/2000/svg" xmlns:xlink="http://www.w3.org/1999/xlink">
    <title>Group 90</title>
    <g id="Page-1" stroke="none" stroke-width="1" fill="none" fill-rule="evenodd">
        <g id="dashboard-property-copy-2" transform="translate(-1192.000000, -1425.000000)">
            <g id="Group-90" transform="translate(1192.125000, 1425.000000)">
                <circle id="Oval" fill="#7CAEF7" cx="10.875" cy="15" r="4"></circle>
                <g id="washing-machine" fill-rule="nonzero">
                    <path d="M18.475,0 L3.275,0 C1.9495,0 0.875,1.11927083 0.875,2.5 L0.875,4.73958333 C0.875,4.88338542 0.98695,5 1.125,5 L20.625,5 C20.76305,5 20.875,4.88338542 20.875,4.73958333 L20.875,2.5 C20.875,1.11927083 19.8005,0 18.475,0 Z M14.075,3.33333333 L13.675,3.33333333 C13.233,3.33333333 12.875,2.96041667 12.875,2.5 C12.875,2.03958333 13.233,1.66666667 13.675,1.66666667 L14.075,1.66666667 C14.517,1.66666667 14.875,2.03958333 14.875,2.5 C14.875,2.96041667 14.517,3.33333333 14.075,3.33333333 Z M17.275,3.33333333 L16.875,3.33333333 C16.433,3.33333333 16.075,2.96041667 16.075,2.5 C16.075,2.03958333 16.433,1.66666667 16.875,1.66666667 L17.275,1.66666667 C17.717,1.66666667 18.075,2.03958333 18.075,2.5 C18.075,2.96041667 17.717,3.33333333 17.275,3.33333333 Z" id="Shape" fill="#7CAEF7"></path>
                    <path d="M0.875,6.24739583 L0.875,24.2083333 C0.875,24.6455807 1.23315,25 1.675,25 L20.075,25 C20.51685,25 20.875,24.6455807 20.875,24.2083333 L20.875,6.24739583 C20.875,6.11078385 20.76305,6 20.625,6 L1.125,6 C0.98695,6 0.875,6.11078385 0.875,6.24739583 Z M10.875,8.375 C14.4005,8.375 17.2695,11.210651 17.275,14.6984375 C17.316,18.0966667 14.471,21.0416667 10.875,21.0416667 C7.3105,21.0416667 4.469,18.1580208 4.47499052,14.7078385 C4.47499052,11.2160937 7.346,8.375 10.875,8.375 Z" id="Shape" fill="#001950"></path>
                </g>
            </g>
        </g>
    </g>
</svg>