<?xml version="1.0" encoding="UTF-8"?>
<svg width="22px" height="20px" viewBox="0 0 22 20" version="1.1" xmlns="http://www.w3.org/2000/svg" xmlns:xlink="http://www.w3.org/1999/xlink">
    <title>BA36D2BE-8BFE-45A1-9790-8715DA57118E</title>
    <defs>
        <filter id="filter-1">
            <feColorMatrix in="SourceGraphic" type="matrix" values="0 0 0 0 1.000000 0 0 0 0 1.000000 0 0 0 0 1.000000 0 0 0 1.000000 0"></feColorMatrix>
        </filter>
        <polygon id="path-2" points="0 0 21.6 0 21.6 19.8 0 19.8"></polygon>
    </defs>
    <g id="Page-1" stroke="none" stroke-width="1" fill="none" fill-rule="evenodd">
        <g id="Group-3" transform="translate(-1874.000000, -368.000000)" filter="url(#filter-1)">
            <g transform="translate(1874.000000, 368.000000)">
                <mask id="mask-3" fill="white">
                    <use xlink:href="#path-2"></use>
                </mask>
                <g id="Clip-2"></g>
                <path d="M21.6,6.894022 C21.5875724,6.94808686 21.5681025,7.00215171 21.5631315,7.05705478 C21.4786238,8.05327303 21.1915465,8.99249268 20.7818502,9.89608821 C20.02211,11.5729369 18.9110832,12.9991593 17.6575534,14.3176711 C15.6521542,16.4270386 13.3497356,18.1629814 10.9321546,19.7522366 C10.823206,19.8234848 10.7519545,19.8100734 10.652948,19.7446927 C8.58623935,18.3863656 6.60072431,16.9194898 4.81197949,15.1965393 C3.59117565,14.0213622 2.46357875,12.7636209 1.56920634,11.3093183 C0.751056502,9.97865236 0.153703554,8.56542226 0.0248708449,6.98161545 C-0.116389457,5.24190069 0.342602961,3.68030657 1.43995938,2.33622919 C3.65124235,-0.371204525 7.52575145,-0.760555286 10.2444944,1.43221456 C10.4350509,1.58560786 10.6135939,1.75450813 10.8037361,1.92173198 C10.891972,1.83916783 10.9690231,1.76708136 11.0456599,1.69499489 C11.4913962,1.27504929 11.9872572,0.925513726 12.536971,0.66357161 C14.4591053,-0.252178027 16.3824824,-0.223678725 18.2557348,0.771282208 C19.8352819,1.6107543 20.8754714,2.93597185 21.3584905,4.68239233 C21.4728243,5.09688953 21.5212919,5.53024657 21.6,5.95480235 L21.6,6.894022 Z" id="Fill-1" fill="#000000" mask="url(#mask-3)"></path>
            </g>
        </g>
    </g>
</svg>