<?xml version="1.0" encoding="UTF-8"?>
<svg width="22px" height="20px" viewBox="0 0 22 20" version="1.1" xmlns="http://www.w3.org/2000/svg" xmlns:xlink="http://www.w3.org/1999/xlink">
    <title>Fill 1</title>
    <g id="Page-1" stroke="none" stroke-width="1" fill="none" fill-rule="evenodd">
        <g id="dashboard-property" transform="translate(-1768.000000, -699.000000)" fill="#FF8B00">
            <g id="Group-102" transform="translate(634.000000, 589.000000)">
                <path d="M1155.6,116.894022 C1155.58757,116.948087 1155.5681,117.002152 1155.56313,117.057055 C1155.47862,118.053273 1155.19155,118.992493 1154.78185,119.896088 C1154.02211,121.572937 1152.91108,122.999159 1151.65755,124.317671 C1149.65215,126.427039 1147.34974,128.162981 1144.93215,129.752237 C1144.82321,129.823485 1144.75195,129.810073 1144.65295,129.744693 C1142.58624,128.386366 1140.60072,126.91949 1138.81198,125.196539 C1137.59118,124.021362 1136.46358,122.763621 1135.56921,121.309318 C1134.75106,119.978652 1134.1537,118.565422 1134.02487,116.981615 C1133.88361,115.241901 1134.3426,113.680307 1135.43996,112.336229 C1137.65124,109.628795 1141.52575,109.239445 1144.24449,111.432215 C1144.43505,111.585608 1144.61359,111.754508 1144.80374,111.921732 C1144.89197,111.839168 1144.96902,111.767081 1145.04566,111.694995 C1145.4914,111.275049 1145.98726,110.925514 1146.53697,110.663572 C1148.45911,109.747822 1150.38248,109.776321 1152.25573,110.771282 C1153.83528,111.610754 1154.87547,112.935972 1155.35849,114.682392 C1155.47282,115.09689 1155.52129,115.530247 1155.6,115.954802 L1155.6,116.894022 Z" id="Fill-1"></path>
            </g>
        </g>
    </g>
</svg>