<?xml version="1.0" encoding="UTF-8"?>
<svg width="37px" height="37px" viewBox="0 0 37 37" version="1.1" xmlns="http://www.w3.org/2000/svg" xmlns:xlink="http://www.w3.org/1999/xlink">
    <title>linkdein</title>
    <g id="Page-1" stroke="none" stroke-width="1" fill="none" fill-rule="evenodd">
        <g id="homepage" transform="translate(-751.000000, -5033.000000)">
            <g id="Group-18" transform="translate(751.000000, 5031.000000)">
                <g id="linkdein" transform="translate(0.000000, 2.000000)">
                    <circle id="Oval" fill="#001950" cx="18.4" cy="18.4" r="18.4"></circle>
                    <path d="M24.1556145,26 L24.1556145,20.3005845 C24.1556145,18.9429446 24.1255526,17.2012246 22.1538462,17.2012246 C20.1520778,17.2012246 19.8461538,18.6774283 19.8461538,20.2037295 L19.8461538,26 L16,26 L16,14.2939048 L19.6923077,14.2939048 L19.6923077,15.8903423 L19.7453581,15.8903423 C20.2599469,14.9718898 21.515473,14 23.3881521,14 C27.285588,14 28,16.4230448 28,19.5691623 L28,26 L27.9964633,26 L24.1556145,26 Z M10,26 L14,26 L14,14 L10,14 L10,26 Z M10,9.99052881 C10,8.89187056 10.8961142,8 12,8 C13.1038858,8 14,8.89187056 14,9.99052881 C14,11.0891871 13.1038858,12 12,12 C10.8961142,12 10,11.0891871 10,9.99052881 L10,9.99052881 Z" id="Fill-1" fill="#FFFFFF"></path>
                </g>
            </g>
        </g>
    </g>
</svg>