<?xml version="1.0" encoding="UTF-8"?>
<svg width="30px" height="21px" viewBox="0 0 30 21" version="1.1" xmlns="http://www.w3.org/2000/svg" xmlns:xlink="http://www.w3.org/1999/xlink">
    <title>contact envelope</title>
    <defs>
        <filter color-interpolation-filters="auto" id="filter-1">
            <feColorMatrix in="SourceGraphic" type="matrix" values="0 0 0 0 1.000000 0 0 0 0 0.543816 0 0 0 0 0.000000 0 0 0 1.000000 0"></feColorMatrix>
        </filter>
        <polygon id="path-2" points="0 0 29.007792 0 29.007792 18.5653287 0 18.5653287"></polygon>
    </defs>
    <g id="Page-1" stroke="none" stroke-width="1" fill="none" fill-rule="evenodd">
        <g id="homepage" transform="translate(-1304.000000, -5041.000000)">
            <g id="Group-18" transform="translate(751.000000, 5031.000000)">
                <g id="contact-envelope" transform="translate(405.000000, 9.000000)" filter="url(#filter-1)">
                    <g transform="translate(148.000000, 1.000000)">
                        <g id="Group-3" transform="translate(0.000000, 1.630434)">
                            <mask id="mask-3" fill="white">
                                <use xlink:href="#path-2"></use>
                            </mask>
                            <g id="Clip-2"></g>
                            <path d="M28.3538376,0.0966806782 L18.9559656,8.16636868 C18.7714296,8.32556068 18.7714296,8.60988868 18.9559656,8.76749668 L28.3538376,16.8387687 C28.6104456,17.0589447 29.0080296,16.8767847 29.0080296,16.5386007 L29.0080296,0.396848678 C29.0080296,0.0578726782 28.6104456,-0.124287322 28.3538376,0.0966806782 L28.3538376,0.0966806782 Z M17.3442456,9.99351268 C17.1953496,9.86679268 16.9767576,9.86679268 16.8278616,9.99351268 L15.5353176,11.1031047 C14.9421096,11.6131527 14.0653656,11.6131527 13.4721576,11.1031047 L12.1796136,9.99430468 C12.0315096,9.86679268 11.8121256,9.86679268 11.6640216,9.99430468 L2.4934536,17.8691607 C2.2146696,18.1083447 2.3841576,18.5653287 2.7516456,18.5653287 L26.2566216,18.5653287 C26.6233176,18.5653287 26.7928056,18.1083447 26.5148136,17.8691607 L17.3442456,9.99351268 Z M10.0523016,8.16716068 L0.6536376,0.0966806782 C0.3970296,-0.124287322 -0.000554400001,0.0578726782 -0.000554400001,0.396848678 L-0.000554400001,16.5386007 C-0.000554400001,16.8767847 0.3970296,17.0589447 0.6536376,16.8387687 L10.0523016,8.76749668 C10.2360456,8.60988868 10.2360456,8.32556068 10.0523016,8.16716068 L10.0523016,8.16716068 Z" id="Fill-1" fill="#173042" mask="url(#mask-3)"></path>
                        </g>
                        <path d="M26.2563048,0 L2.7513288,0 C2.3838408,0 2.2151448,0.456984 2.4931368,0.696168 L13.9882248,10.567656 C14.2852248,10.82268 14.7224088,10.82268 15.0194088,10.567656 L26.5144968,0.696168 C26.7932808,0.456984 26.6237928,0 26.2563048,0" id="Fill-4" fill="#173042"></path>
                    </g>
                </g>
            </g>
        </g>
    </g>
</svg>