<?xml version="1.0" encoding="UTF-8"?>
<svg width="21px" height="24px" viewBox="0 0 21 24" version="1.1" xmlns="http://www.w3.org/2000/svg" xmlns:xlink="http://www.w3.org/1999/xlink">
    <title>paint-roller</title>
    <g id="Page-1" stroke="none" stroke-width="1" fill="none" fill-rule="evenodd">
        <g id="dashboard-property-copy-2" transform="translate(-1193.000000, -1482.000000)" fill-rule="nonzero">
            <g id="paint-roller" transform="translate(1193.692425, 1482.000000)">
                <path d="M18.5856531,2.47091064 L17.6272457,2.47091064 L17.6272457,1.28487353 C17.6272457,0.576396065 17.0098032,0 16.2508735,0 L4.57144103,0 C3.81251133,0 3.19506884,0.576396065 3.19506884,1.28487353 L3.19506884,2.47091064 L2.17530217,2.47091064 C1.14542927,2.47091064 0.307574728,3.25306618 0.307574728,4.2149243 L0.307574728,7.24111595 C0.307574728,8.20297408 1.14542927,8.98512961 2.17530217,8.98512961 L9.22367529,8.98512961 C9.48018102,8.98512961 9.6890431,9.18010692 9.6890431,9.42000988 L9.6890431,10 L11.1327902,10 L11.1327902,9.42000988 C11.1327902,8.4370367 10.2766481,7.63736017 9.22367529,7.63736017 L2.17535029,7.63736017 C1.94146327,7.63736017 1.75136991,7.4594546 1.75136991,7.24111595 L1.75136991,4.2149243 C1.75136991,3.99658565 1.94146327,3.81868008 2.17535029,3.81868008 L3.19511696,3.81868008 L3.19511696,5.00471719 C3.19511696,5.71319466 3.81255945,6.28959073 4.57148916,6.28959073 L16.2509216,6.28959073 C17.0098513,6.28959073 17.6272938,5.71319466 17.6272938,5.00471719 L17.6272938,3.81868008 L18.5857012,3.81868008 C18.9843679,3.81868008 19.3075747,3.51695943 19.3075747,3.14479536 C19.3075747,2.7726313 18.9843679,2.47091064 18.5856531,2.47091064 Z" id="Path" fill="#7CAEF7"></path>
                <path d="M11.9709702,11.7186307 C11.9562974,11.3167187 11.6796108,11 11.3429755,11 C11.0503166,11 8.57296576,11 8.27217393,11 C7.93553861,11 7.65885205,11.3167187 7.64417928,11.7186307 L7.3100593,20.8814232 C7.27987531,21.7037894 7.52553944,22.4835588 8.0017757,23.0784087 C8.47801196,23.6727574 9.11900249,24 9.80736512,24 C10.496147,24 11.1375567,23.6727574 11.6133738,23.0779076 C12.08961,22.4835588 12.3352741,21.7032882 12.3050902,20.8814232 L11.9709702,11.7186307 Z" id="Path" fill="#001950"></path>
            </g>
        </g>
    </g>
</svg>