<?xml version="1.0" encoding="UTF-8"?>
<svg width="28px" height="28px" viewBox="0 0 28 28" version="1.1" xmlns="http://www.w3.org/2000/svg" xmlns:xlink="http://www.w3.org/1999/xlink">
    <title>36935604-EC6E-4B59-B395-FD1341540FFF</title>
    <g id="Page-1" stroke="none" stroke-width="1" fill="none" fill-rule="evenodd">
        <g id="dashboard-property" transform="translate(-1212.000000, -253.000000)" fill-rule="nonzero">
            <g id="Group-94" transform="translate(1226.000000, 267.000000) rotate(-15.000000) translate(-1226.000000, -267.000000) translate(1215.000000, 256.000000)">
                <path d="M13.3609207,4 L1.45691334,15.9046484 C1.39702438,15.9647079 1.35378076,16.0405545 1.33318856,16.1220638 L0.0137433898,21.4179378 C-0.0257250144,21.5773528 0.0211222722,21.7468922 0.137468177,21.863236 C0.225499819,21.951266 0.345449391,22 0.46814459,22 C0.505725365,22 0.544164138,21.9953669 0.581573278,21.9859289 L5.87754379,20.6663362 C5.96008418,20.6457444 6.03507409,20.6026731 6.09496311,20.5427852 L18,8.63899484 L13.3609207,4 Z" id="Path" fill="#001950"></path>
                <path d="M21.2100765,2.29744777 L19.6843665,0.766856553 C18.6646579,-0.256114314 16.887429,-0.255123268 15.8689059,0.766856553 L14,2.64174158 L19.3411706,8 L21.2100765,6.12511498 C21.7194368,5.61432329 22,4.93445699 22,4.2113805 C22,3.48830401 21.7194368,2.80843765 21.2100765,2.29744777 Z" id="Path" fill="#7CAEF7"></path>
            </g>
        </g>
    </g>
</svg>