<?xml version="1.0" encoding="UTF-8"?>
<svg width="30px" height="25px" viewBox="0 0 30 25" version="1.1" xmlns="http://www.w3.org/2000/svg" xmlns:xlink="http://www.w3.org/1999/xlink">
    <title>Group 6 contact</title>
    <defs>
        <filter color-interpolation-filters="auto" id="filter-1">
            <feColorMatrix in="SourceGraphic" type="matrix" values="0 0 0 0 1.000000 0 0 0 0 0.543816 0 0 0 0 0.000000 0 0 0 1.000000 0"></feColorMatrix>
        </filter>
        <polygon id="path-2" points="8.9749363e-05 0.304997 29.54721 0.304997 29.54721 10.8948274 8.9749363e-05 10.8948274"></polygon>
    </defs>
    <g id="Page-1" stroke="none" stroke-width="1" fill="none" fill-rule="evenodd">
        <g id="homepage" transform="translate(-1042.000000, -5038.000000)">
            <g id="Group-18" transform="translate(751.000000, 5031.000000)">
                <g id="Group-6-contact" transform="translate(181.000000, 7.000000)" filter="url(#filter-1)">
                    <g transform="translate(110.000000, 0.000000)">
                        <path d="M14.773759,20.464906 C12.684749,20.464906 10.991519,18.771676 10.991519,16.681896 C10.991519,14.593656 12.684749,12.899656 14.773759,12.899656 C16.862769,12.899656 18.555999,14.593656 18.555999,16.681896 C18.555999,18.771676 16.862769,20.464906 14.773759,20.464906 M23.949849,14.302596 L22.201949,12.247466 C21.074669,10.919986 21.247919,9.838136 21.294889,8.114106 C21.303359,7.761446 21.075439,7.444206 20.735869,7.347956 L18.713849,6.770456 C18.300359,6.652646 17.857609,6.893656 17.761359,7.312536 C17.424869,8.772456 16.215199,10.165386 14.773759,10.165386 C13.327699,10.165386 12.114949,8.804796 11.783079,7.351806 C11.689139,6.938316 11.253319,6.698846 10.843679,6.808186 L8.793939,7.354886 C8.448209,7.447286 8.212589,7.766836 8.223369,8.124886 C8.268799,9.729566 8.415099,10.965416 7.314769,12.265176 L5.557629,14.342636 C4.746819,15.300516 4.301759,16.516346 4.301759,17.771446 L4.301759,22.140426 C4.301759,23.352406 5.284279,24.334926 6.496259,24.334926 L22.995819,24.334926 C24.238599,24.334926 25.245759,23.327766 25.245759,22.084986 L25.245759,17.827656 C25.245759,16.535596 24.786839,15.285886 23.949849,14.302596" id="Fill-1" fill="#173042"></path>
                        <g id="Group-5" transform="translate(0.000000, 0.464926)">
                            <mask id="mask-3" fill="white">
                                <use xlink:href="#path-2"></use>
                            </mask>
                            <g id="Clip-4"></g>
                            <path d="M28.413462,4.321317 C25.574472,1.961267 20.294582,0.304997 14.773682,0.304997 C9.252782,0.304997 3.972892,1.961267 1.133902,4.321317 C0.162162,5.129047 -0.455378,7.710087 0.420112,9.409477 C1.054592,10.641477 1.803802,11.166617 3.144372,10.758517 L5.378912,9.839907 C6.254402,9.615837 6.475392,9.049887 6.291362,8.057357 C5.886342,5.877487 6.490022,5.183717 8.449672,4.686297 C10.277652,4.222757 12.807102,4.167317 14.773682,4.167317 C16.740262,4.167317 19.269712,4.222757 21.097692,4.686297 C23.057342,5.183717 23.661022,5.877487 23.256772,8.057357 C23.071972,9.049887 23.293732,9.615837 24.168452,9.839907 L26.403762,10.758517 C27.743562,11.166617 28.493542,10.641477 29.128022,9.409477 C30.002742,7.710087 29.385972,5.129047 28.413462,4.321317" id="Fill-3" fill="#173042" mask="url(#mask-3)"></path>
                        </g>
                    </g>
                </g>
            </g>
        </g>
    </g>
</svg>