<?xml version="1.0" encoding="UTF-8"?>
<svg width="26px" height="26px" viewBox="0 0 26 26" version="1.1" xmlns="http://www.w3.org/2000/svg" xmlns:xlink="http://www.w3.org/1999/xlink">
    <title>search-magnifier-interface-symbol</title>
    <defs>
        <filter id="filter-1">
            <feColorMatrix in="SourceGraphic" type="matrix" values="0 0 0 0 0.000000 0 0 0 0 0.098095 0 0 0 0 0.315189 0 0 0 1.000000 0"></feColorMatrix>
        </filter>
    </defs>
    <g id="Page-1" stroke="none" stroke-width="1" fill="none" fill-rule="evenodd">
        <g id="search-magnifier-interface-symbol" transform="translate(-285.000000, -29.000000)" filter="url(#filter-1)">
            <g transform="translate(285.000000, 29.000000)">
                <path d="M25.3813403,20.4692737 L19.7240655,15.1901472 C19.5894405,15.0666495 19.4245166,15 19.2571058,15 C19.0232115,15 18.8004254,15.1296065 18.6613654,15.3467417 C18.0175447,16.350998 17.2281566,17.2198125 16.3149201,17.9286135 C16.1449809,18.0605905 16.0324066,18.2622714 16.0061696,18.4821876 C15.9798498,18.702286 16.0382923,18.9199227 16.1709277,19.0948436 L20.9736986,25.3226091 C21.2991529,25.7521385 21.7716666,26 22.2681377,26 C22.7144559,26 23.1394282,25.8028778 23.4650482,25.4447847 L25.4951995,23.2118429 C25.8411293,22.831275 26.0197727,22.3346858 25.9982609,21.8132056 C25.9765833,21.2914063 25.7575275,20.8141463 25.3813403,20.4692737 Z" id="Path" fill="#000000" fill-rule="nonzero"></path>
                <path d="M9.49995619,19 C12.0372758,19 14.4229861,18.0118088 16.2173722,16.2174352 C18.0118458,14.422974 19,12.0374554 19,9.5000219 C19,4.2617633 14.7383386,0 9.49995619,0 C4.26152995,0 0,4.2617633 0,9.5000219 C0,14.7382805 4.26166136,19 9.49995619,19 Z M3.07861853,9.5000219 C3.07861853,5.95928465 5.95919445,3.07872865 9.49995619,3.07872865 C13.0407617,3.07872865 15.9212501,5.95928465 15.9212501,9.5000219 C15.9212501,11.2123931 15.2526975,12.8241447 14.0384216,14.0382807 C12.824102,15.2524606 11.2123392,15.9211837 9.49995619,15.9211837 C5.95919445,15.9213152 3.07861853,13.0407154 3.07861853,9.5000219 Z" id="Shape" fill="#000000" fill-rule="nonzero"></path>
            </g>
        </g>
    </g>
</svg>