<?xml version="1.0" encoding="UTF-8"?>
<svg width="40px" height="40px" viewBox="0 0 40 40" version="1.1" xmlns="http://www.w3.org/2000/svg" xmlns:xlink="http://www.w3.org/1999/xlink">
    <title>Group 109</title>
    <defs>
        <filter id="filter-1">
            <feColorMatrix in="SourceGraphic" type="matrix" values="0 0 0 0 1.000000 0 0 0 0 1.000000 0 0 0 0 1.000000 0 0 0 1.000000 0"></feColorMatrix>
        </filter>
        <polygon id="path-2" points="1.33855186e-05 0.00702670487 22.7983491 0.00702670487 22.7983491 15.5904434 1.33855186e-05 15.5904434"></polygon>
    </defs>
    <g id="Page-1" stroke="none" stroke-width="1" fill="none" fill-rule="evenodd">
        <g id="dashboard-property" transform="translate(-1758.000000, -3230.000000)">
            <g id="Group-107" transform="translate(29.000000, 3065.000000)">
                <g id="Group-109" transform="translate(1729.000000, 165.000000)">
                    <rect id="Rectangle" fill="#FF8B00" x="0" y="0" width="40" height="40" rx="3"></rect>
                    <g filter="url(#filter-1)" id="Group-6">
                        <g transform="translate(9.000000, 10.000000)">
                            <g id="Group-3">
                                <mask id="mask-3" fill="white">
                                    <use xlink:href="#path-2"></use>
                                </mask>
                                <g id="Clip-2"></g>
                                <path d="M11.3109997,0.00702670487 L11.4891163,0.00702670487 C11.5309238,0.0197212607 11.5719727,0.0381373066 11.6147171,0.0442610888 C12.4976705,0.170223266 13.0753449,1.01557341 12.8758114,1.88729605 C12.7871993,2.2745694 12.5635719,2.56886854 12.2377684,2.80581868 C13.5537879,4.99115966 14.8615977,7.1627333 16.1746725,9.34311266 C17.3704009,8.64312413 18.548148,7.95583014 19.7207195,7.25977513 C19.7720306,7.22933501 19.8085285,7.11267026 19.7962584,7.04647083 C19.7329895,6.70519289 19.7671226,6.37812928 19.9206099,6.07019691 C20.2487335,5.41191266 20.9773073,5.07662441 21.6511789,5.26355622 C22.362887,5.46103702 22.8349496,6.09254648 22.7961316,6.79526166 C22.7545026,7.54933616 22.2194388,8.13382212 21.4596322,8.2284055 C21.2682193,8.25223014 21.194822,8.32388287 21.1440909,8.51009948 C20.5182286,10.8070542 19.8800071,13.1006565 19.2507985,15.3967172 C19.2131406,15.5340777 19.1645512,15.5904434 19.0147672,15.5904434 C13.9400048,15.586778 8.86519773,15.5868674 3.79039068,15.5901751 C3.64524705,15.5902645 3.58773393,15.544135 3.54994215,15.4017683 C3.3385402,14.6061683 3.11402043,13.8140995 2.89521182,13.0204662 C2.4753081,11.4975218 2.05433354,9.97493501 1.63987327,8.45051553 C1.60101065,8.30765708 1.54037425,8.25330292 1.38965331,8.23439519 C1.20203295,8.21079404 1.01084313,8.15769146 0.838839217,8.07879748 C0.363921018,7.86097857 0.134225519,7.44594705 1.33855186e-05,6.96444791 L1.33855186e-05,6.51848458 C0.01406818,6.47691438 0.0297738552,6.43579117 0.0419546771,6.39368458 C0.284589511,5.55401123 1.05019656,5.06424275 1.83561417,5.24674934 C2.67372611,5.4414588 3.1394083,6.17729605 3.00015429,7.0689545 C2.99038286,7.13157799 3.04526348,7.2355035 3.10134881,7.2717992 C3.35000712,7.4328949 3.61008775,7.57624504 3.86601886,7.72607656 C4.77998207,8.26139347 5.69390067,8.79675507 6.62678207,9.34311266 C7.9407492,7.16206281 9.24869284,4.99102556 10.5597598,2.81475851 C10.5059054,2.76527656 10.4641425,2.72446625 10.4198365,2.68651668 C9.78157033,2.1393098 9.70562982,1.22230693 10.237258,0.57202384 C10.51764,0.229002636 10.8961378,0.0866805731 11.3109997,0.00702670487" id="Fill-1" fill="#FF8B00" mask="url(#mask-3)"></path>
                            </g>
                            <path d="M11.4230751,17.6008776 C13.8066998,17.6008776 16.1902352,17.6019216 18.5738152,17.6 C19.0905834,17.5996249 19.5256133,17.7512508 19.8050235,18.1775656 C20.3280862,18.9756582 19.7437756,19.9386979 18.7066678,19.9971183 C18.6548392,20.0000414 18.6027428,19.9985799 18.5507803,19.9985799 C13.7836648,19.9986216 9.01654936,19.9976612 4.24938927,20 C3.72476417,20.0002502 3.2796453,19.8562244 2.99706558,19.4210568 C2.74725261,19.0364172 2.73301202,18.6315664 2.96541487,18.2323948 C3.22678995,17.7835303 3.65561472,17.6027568 4.18327544,17.601671 C5.28966656,17.5992908 6.39610233,17.6008776 7.50249346,17.6008359 C8.80932423,17.6008359 10.1162443,17.6008359 11.4230751,17.6008776" id="Fill-4" fill="#FF8B00"></path>
                        </g>
                    </g>
                </g>
            </g>
        </g>
    </g>
</svg>