<?xml version="1.0" encoding="UTF-8"?>
<svg width="26px" height="20px" viewBox="0 0 26 20" version="1.1" xmlns="http://www.w3.org/2000/svg" xmlns:xlink="http://www.w3.org/1999/xlink">
    <title>yard</title>
    <defs>
        <filter id="filter-1">
            <feColorMatrix in="SourceGraphic" type="matrix" values="0 0 0 0 0.000000 0 0 0 0 0.098095 0 0 0 0 0.315189 0 0 0 1.000000 0"></feColorMatrix>
        </filter>
    </defs>
    <g id="Page-1" stroke="none" stroke-width="1" fill="none" fill-rule="evenodd">
        <g id="yard" transform="translate(-941.000000, -1369.000000)" filter="url(#filter-1)">
            <g transform="translate(941.000000, 1369.958984)">
                <path d="M24.7534219,7.20328499 L26,7.20328499 L26,5.20065921 L24.7534219,5.20065921 L24.7534219,2.55674372 C24.7534219,2.41162591 24.7101055,2.27154691 24.6124531,2.16346438 L22.8764961,0.236723116 C22.7639141,0.112163663 22.6059336,0.041015625 22.4372383,0.041015625 C22.268543,0.041015625 22.1091914,0.112163663 21.9966602,0.236723116 L20.2651719,2.16341399 C20.1674688,2.27149652 20.1232891,2.41157552 20.1232891,2.55669333 L20.1232891,5.20060882 L18.461168,5.20060882 L18.461168,2.55669333 C18.461168,2.41157552 18.4173438,2.27149652 18.3196406,2.16341399 L16.5834805,0.236723116 C16.4709492,0.112163663 16.3127148,0.041015625 16.1440703,0.041015625 C15.9754258,0.041015625 15.8160234,0.112163663 15.7034414,0.236723116 L13.9724102,2.16341399 C13.874707,2.27149652 13.8310352,2.41157552 13.8310352,2.55669333 L13.8310352,5.20060882 L12.1689141,5.20060882 L12.1689141,2.55669333 C12.1689141,2.41157552 12.124582,2.27149652 12.0269297,2.16341399 L10.2904648,0.236723116 C10.177832,0.112163663 10.0195977,0.041015625 9.85095313,0.041015625 C9.68230859,0.041015625 9.52280469,0.112163663 9.41027344,0.236723116 L7.67980078,2.16341399 C7.58209766,2.27149652 7.53888281,2.41157552 7.53888281,2.55669333 L7.53888281,5.20060882 L5.87671094,5.20060882 L5.87671094,2.55669333 C5.87671094,2.41157552 5.83182031,2.27149652 5.73416797,2.16341399 L3.99744922,0.236723116 C3.88491797,0.112163663 3.72648047,0.041015625 3.55783594,0.041015625 C3.38919141,0.041015625 3.22963672,0.112163663 3.11700391,0.236723116 L1.3869375,2.16341399 C1.28928516,2.27149652 1.24652734,2.41157552 1.24652734,2.55669333 L1.24652734,5.20060882 L0,5.20060882 L0,7.20323461 L1.24657812,7.20323461 L1.24657812,12.7988363 L0,12.7988363 L0,14.8014621 L1.24657812,14.8014621 L1.24657812,17.4283464 C1.24657812,17.7536017 1.49098828,18.0410156 1.81883203,18.0410156 L5.30141016,18.0410156 C5.62925391,18.0410156 5.87671094,17.7536017 5.87671094,17.4283464 L5.87671094,14.8014621 L7.53883203,14.8014621 L7.53883203,17.4283464 C7.53883203,17.7536017 7.78420703,18.0410156 8.11210156,18.0410156 L11.5946797,18.0410156 C11.9225234,18.0410156 12.1689141,17.7536017 12.1689141,17.4283464 L12.1689141,14.8014621 L13.8310352,14.8014621 L13.8310352,17.4283464 C13.8310352,17.7536017 14.0774258,18.0410156 14.4052695,18.0410156 L17.8878477,18.0410156 C18.2156914,18.0410156 18.4611172,17.7536017 18.4611172,17.4283464 L18.4611172,14.8014621 L20.1232383,14.8014621 L20.1232383,17.4283464 C20.1232383,17.7536017 20.3706953,18.0410156 20.6985391,18.0410156 L24.1811172,18.0410156 C24.5089609,18.0410156 24.7533711,17.7536017 24.7533711,17.4283464 L24.7533711,15.9851296 L24.7533711,14.8014621 L26,14.8014621 L26,12.7988363 L24.7533203,12.7988363 L24.7533203,7.20323461 L24.7534219,7.20323461 L24.7534219,7.20328499 Z M7,13.0410156 L5,13.0410156 L5,7.04101562 L7,7.04101562 L7,13.0410156 Z M13,13.0410156 L11,13.0410156 L11,7.04101562 L13,7.04101562 L13,13.0410156 Z M20,13.0410156 L18,13.0410156 L18,7.04101562 L20,7.04101562 L20,13.0410156 Z" id="Shape" fill="#000000" fill-rule="nonzero"></path>
            </g>
        </g>
    </g>
</svg>