<?xml version="1.0" encoding="utf-8"?>
<!-- Generator: Adobe Illustrator 21.0.0, SVG Export Plug-In . SVG Version: 6.00 Build 0)  -->
<svg version="1.1" id="Layer_1" xmlns="http://www.w3.org/2000/svg" xmlns:xlink="http://www.w3.org/1999/xlink" x="0px" y="0px"
	 viewBox="0 0 23.3 23.3" style="enable-background:new 0 0 23.3 23.3;" xml:space="preserve">
<style type="text/css">
	.st0{fill:none;stroke:#000000;stroke-width:2;stroke-linecap:round;stroke-linejoin:round;stroke-miterlimit:10;}
</style>
<g>
	<path d="M11.6,0C5.2,0,0,5.2,0,11.6c0,6.5,5.2,11.6,11.6,11.6c6.5,0,11.6-5.2,11.6-11.6C23.3,5.2,18.1,0,11.6,0L11.6,0z M18.4,8
		l-8.5,8.8c-0.1,0.1-0.2,0.2-0.4,0.2c-0.2,0-0.3-0.1-0.4-0.2L5,12.3l-0.1-0.1c-0.1-0.1-0.2-0.3-0.2-0.4c0-0.1,0.1-0.3,0.2-0.4
		l0.7-0.7c0.2-0.2,0.5-0.2,0.7,0l0.1,0.1l2.9,3.1c0.1,0.1,0.3,0.1,0.4,0l7.1-7.4h0.1c0.2-0.2,0.5-0.2,0.7,0l0.7,0.7
		C18.6,7.5,18.6,7.8,18.4,8L18.4,8z M18.4,8"/>
</g>
</svg>
