<?xml version="1.0" encoding="utf-8"?>
<!-- Generator: Adobe Illustrator 21.0.0, SVG Export Plug-In . SVG Version: 6.00 Build 0)  -->
<svg version="1.1" id="Layer_1" xmlns="http://www.w3.org/2000/svg" xmlns:xlink="http://www.w3.org/1999/xlink" x="0px" y="0px"
	 viewBox="0 0 143.9 137.8" style="enable-background:new 0 0 143.9 137.8;" xml:space="preserve">
<style type="text/css">
	.st0{fill:#FFFFFF;}
</style>
<path class="st0" d="M82.8,2.7c0.3,1.8,1.7,2.8,3.9,3.8c1.5,9.9,3.3,32.8,3.9,50c2.5,1.9,4.2,5,4.2,8.5c0,3.5-1.6,6.5-4.2,8.5
	c-1.7,1.3-3.8,2.1-6.1,2.1c-2.3,0-4.5-0.7-6.2-2c-2.6-1.9-4.4-5.1-4.4-8.6c0-3.5,1.7-6.7,4.3-8.6c0-1,0-2,0-3c-0.1-5.6,0-3.5-0.1-9
	c2.5-1.8,4.1-3.5,4-7.7c-0.1-4-4.7-9-10.2-9.1c-5.5,0.1-10.1,5-10.2,9.1c-0.1,4.2,1.5,6,4,7.7c-0.1,16.2-0.1,32.8,0.1,48.5
	c2.6,1.8,4.2,4.5,4.3,7.5c0,2.9-1.6,5.3-3.9,6.8c-1.6,0.9-3.5,1.4-5.6,1.3c-2.1-0.1-4.1-0.8-5.7-1.9c-2.4-1.6-4.1-4.2-4.4-7
	c-0.2-2.9,1.1-5.5,3.4-7.1c-0.6-18.1-0.4-40.5,0.3-58.1c2.5-1.8,4.2-3.5,4.4-7.2c0.3-3.6-3.5-7.5-8.5-7c-4.7,0.6-9.1,5.2-9.7,8.7
	c-0.5,3.6,0.7,5,2.7,6.4c-1.4,22.7-0.2,59.3,2.3,77.9c2.3,1.5,4,3.6,4.4,5.6c0.4,1.9-0.5,3.3-2.2,3.9c-1,0.4-2.5,0.4-4.1,0
	c-1.5-0.3-3.1-1.1-4.5-1.9c-2-1.4-3.7-3.2-4.3-5c-0.6-1.9,0-3.5,1.5-4.2c-3.8-23-3.4-71.5,0.7-93.6c2.1-1.5,3.6-2.9,4.3-5.3
	c0.7-2.3-1.4-4.1-4.9-3.1c-3.3,1.2-7.2,4.7-8.2,6.9c-0.9,2.4-0.4,3.1,0.8,3.7c-3.1,12.1-6.3,38.8-6.1,55.3c1.8,1.8,3.1,4.6,3.4,7.6
	c0.3,3-0.6,5.4-2.1,6.7c-1,0.8-2.2,1.2-3.5,0.9c-1.3-0.3-2.6-1.1-3.7-2.3c-1.5-1.7-2.7-4.3-3-7c-0.3-2.7,0.4-5.1,1.6-6.5
	c-0.2-4.6-0.2-13.6,0-18.1c1.5-1.7,2.6-3.4,2.9-7.2c0.4-3.7-1.4-7.7-4.2-7c-2.5,0.8-5,5.4-5.5,8.8c-0.4,3.4,0.1,4.7,1.1,6
	c0,16.9,0.8,25.5,3.9,40.5c1.4,1.6,2.7,3.9,3.4,5.9c0.7,2,0.7,3.3,0,3.7c-0.4,0.3-1,0.1-1.8-0.4c-0.7-0.5-1.6-1.4-2.4-2.4
	c-1.2-1.5-2.3-3.4-3-5.3c-0.7-1.9-0.8-3.2-0.5-3.8C5.6,76,5.1,66.1,7.1,45.3c1-1.6,1.8-3.1,2.5-6.1c0.8-2.9,0.4-5.4-1.1-4.3
	C7.3,36,5.4,40,4.6,42.6c-0.7,2.6-0.7,3.5-0.5,4.3C2.5,58.3,2.3,70.3,3.6,81.9c0.7,1.5,1.5,3.6,1.9,5.7c0.5,2.1,0.7,3.6,0.4,4.3
	c-0.1,0.4-0.3,0.4-0.7,0c-0.3-0.4-0.7-1.2-1.1-2.1c-0.5-1.4-1.1-3.3-1.6-5.1c-0.4-1.8-0.7-3.3-0.7-4.1c-0.6-3.9-1-7.9-1.3-11.9
	C0.8,67.6,1,66.3,1,63.4c0.1-2.8-0.1-6.1-0.4-5.8c-0.1,0.1-0.1,0.5-0.2,1.1l0,0c-0.1,1-0.1,2-0.2,2.9c0-0.5,0.1-0.8,0.1-0.9
	c0.1-0.1,0.2,1.1,0.2,2.7c0,1.6-0.2,2.9-0.3,2.9C0,66.5,0,65.2,0,63.7c0,0.7,0,1.4,0,2.1c0,39.7,32.2,72,72,72c39.7,0,72-32.2,72-72
	c0-4.1-0.3-8.1-1-12l0,0c0.1,0.5,0.1,0.8,0,0.7c-0.2-0.3-0.5-1.7-0.8-3.3c-0.3-1.5-0.4-2.5-0.3-2.1c0,0.1,0.1,0.3,0.2,0.6l0,0
	c-0.3-1.2-0.6-2.3-0.9-3.4h0c0,0,0-0.1,0-0.1c-0.4-0.8-0.1,1.8,0.5,4.5c0.4,2.7,0.8,4.1,1.2,5.4c0.5,7,0.5,14.1-0.2,21
	c0,0.9-0.1,2.5-0.5,4.4c-0.4,1.9-0.9,3.8-1.4,5.2c-0.4,0.9-0.7,1.7-1,2.1c-0.3,0.3-0.6,0.3-0.7-0.2c-0.2-0.8-0.2-2.4,0.2-4.5
	c0.4-2.3,1.1-4.4,1.7-5.8c0.8-12.4-0.1-24.8-2.4-36.4c0.2-0.7,0.1-1.4-0.7-3.9c-0.9-2.4-3-6.2-4.2-7.5c-1.5-1.2-1.7,0.8-0.8,3.5
	c0.8,2.8,1.7,4.3,2.8,5.9c2.8,16.5,2.9,34.2,0.3,51c0.4,0.8,0.3,2.4-0.3,4.4c-0.7,1.9-1.7,3.9-2.8,5.5c-0.8,1.1-1.6,1.9-2.4,2.4
	c-0.8,0.5-1.4,0.5-1.9,0.2c-0.7-0.6-0.8-2.1-0.2-4.3c0.6-2.3,1.8-4.6,3.2-6.3c2.8-22.5,1.4-45.8-3.6-65.5c0.6-0.5,0.8-1.1-0.3-3.4
	c-1.1-2.2-4.2-5.8-6.6-7.2c-2.6-1.3-3.6,0.3-2.6,2.6c1,2.5,2.2,3.9,3.9,5.6c3.3,12,5.5,26.2,6.2,41.5c1.3,1.6,2.1,4,2,6.9
	c-0.2,2.8-1.2,5.3-2.6,7.1c-1,1.2-2.3,1.9-3.6,2.1c-1.4,0.2-2.7-0.3-3.7-1.2c-1.6-1.5-2.6-4.1-2.4-7.2c0.1-3.1,1.3-5.9,3-7.6
	c-0.1-4.9-0.9-18.8-1.5-23.3c1.4-1.3,2.2-2.6,1.6-6.1c-0.7-3.4-4.4-8.2-8.2-9.1c-4-0.8-6.8,2.9-6.3,6.5c0.5,3.8,2,5.6,4.1,7.4
	c1.3,25.1,1.1,33-1,57c1.7,1.1,2.4,3.2,1.9,5.7c-0.5,2.4-2.2,4.7-4.2,6.3c-1.4,1.1-3.1,1.9-4.8,2.2c-1.7,0.3-3.3,0.1-4.5-0.5
	c-1.9-1-2.9-2.9-2.6-5.5c0.3-2.6,2-5.2,4.4-6.9c1.8-32.6-0.2-69.8-4.5-92c1.6-0.5,2.5-1.1,1.8-2.9c-0.7-1.6-4.6-4.1-8.4-4.8
	C85.3-0.4,82.5,1,82.8,2.7z M67.2,36.5c0-2.4,2.2-4.3,4.8-4.3c2.6,0,4.8,1.9,4.8,4.3c0,2.5-2.1,4.5-4.8,4.5
	C69.3,41,67.1,39,67.2,36.5z M45,28.3c0.2-2,2.3-3.9,4.6-4.2c2.3-0.2,4.1,1.3,3.9,3.4c-0.2,2.2-2.3,4.1-4.8,4.3
	C46.5,32,44.8,30.4,45,28.3z M31.2,15.3c0.5-1.3,2.3-2.8,3.9-3.3c1.7-0.5,2.7,0.1,2.2,1.5c-0.5,1.4-2.3,3-4.1,3.5
	C31.6,17.5,30.7,16.7,31.2,15.3z M10.8,50.8c0.3-2,1.4-3.8,2.6-4.2c1.3-0.3,2.2,1.2,1.9,3.4c-0.2,2.1-1.5,4.1-2.8,4.2
	C11.3,54.4,10.6,52.8,10.8,50.8z M5.6,41.6C6,40.1,6.9,38.5,7.5,38c0.7-0.5,0.9,0.5,0.4,2.1c-0.4,1.7-1.3,3.4-2,3.8
	C5.3,44.3,5.2,43.3,5.6,41.6z M136.6,38.6c-0.7-0.5-1.7-2.2-2.2-3.7c-0.5-1.5-0.4-2.3,0.3-1.7c0.6,0.6,1.5,2.2,2.1,3.6
	C137.3,38.2,137.3,39.1,136.6,38.6z M124.7,23.8c-1.2-0.6-2.8-2.2-3.3-3.6c-0.6-1.4-0.1-1.9,1.1-1.3c1.2,0.6,2.5,2.2,3.2,3.5
	C126.3,23.7,125.9,24.4,124.7,23.8z M115.5,39.2c-1.9-0.3-3.8-2.3-4.1-4.5c-0.3-2.1,1-3.5,2.9-3.1c1.8,0.3,3.6,2.3,3.9,4.3
	C118.5,38,117.3,39.5,115.5,39.2z M89.9,1.8c1.9,0.3,3.7,1.3,4,2.3C94.3,5.2,93,5.8,91,5.5c-2-0.3-3.9-1.4-4.2-2.5
	C86.6,2.1,88,1.5,89.9,1.8z"/>
</svg>
