<?xml version="1.0" encoding="UTF-8"?>
<svg width="66px" height="49px" viewBox="0 0 66 49" version="1.1" xmlns="http://www.w3.org/2000/svg" xmlns:xlink="http://www.w3.org/1999/xlink">
    <title>1A0D04FE-10FC-4E49-9B8B-2495029B0C98</title>
    <g id="Page-1" stroke="none" stroke-width="1" fill="none" fill-rule="evenodd">
        <g id="-packages" transform="translate(-462.000000, -531.000000)" fill-rule="nonzero">
            <g id="city3" transform="translate(462.000000, 531.000000)">
                <rect id="Rectangle" fill="#001950" x="0" y="46.8" width="65.06" height="1.77" rx="0.88"></rect>
                <rect id="Rectangle" fill="#001950" x="8.68" y="34.96" width="9.55" height="10.31" rx="0.65"></rect>
                <rect id="Rectangle" fill="#7CAEF7" x="19.74" y="20.87" width="4.58" height="24.48" rx="0.65"></rect>
                <rect id="Rectangle" fill="#7CAEF7" x="40.5" y="20.87" width="9.31" height="24.48" rx="0.65"></rect>
                <rect id="Rectangle" fill="#7CAEF7" x="40.5" y="16.71" width="9.31" height="3.04" rx="0.45"></rect>
                <path d="M13.23,28.67 C13.2885407,28.6082333 13.3698993,28.5732487 13.455,28.5732487 C13.5401007,28.5732487 13.6214593,28.6082333 13.68,28.67 L17,32.07 L20.05,35.16 C20.1365012,35.2511866 20.1616112,35.3845675 20.1141896,35.5009661 C20.0667679,35.6173647 19.9555971,35.6952239 19.83,35.7 L7.06,35.7 C6.93440287,35.6952239 6.82323207,35.6173647 6.77581042,35.5009661 C6.72838876,35.3845675 6.75349878,35.2511866 6.84,35.16 L9.84,32.07 L13.23,28.67 Z" id="Path" fill="#001950"></path>
                <rect id="Rectangle" fill="#001950" x="51.33" y="38.93" width="5.88" height="6.35" rx="0.65"></rect>
                <path d="M54.12,35.85 C54.1579666,35.8069499 54.2125999,35.7822876 54.27,35.7822876 C54.3274001,35.7822876 54.3820334,35.8069499 54.42,35.85 L56.42,37.91 L58.23,39.76 C58.2913587,39.8201009 58.3099339,39.9115088 58.2768994,39.9907914 C58.243865,40.070074 58.1658804,40.1212488 58.08,40.1200224 L50.44,40.1200224 C50.3541196,40.1212488 50.276135,40.070074 50.2431006,39.9907914 C50.2100661,39.9115088 50.2286413,39.8201009 50.29,39.76 L52.11,37.91 L54.12,35.85 Z" id="Path" fill="#001950"></path>
                <rect id="Rectangle" fill="#001950" x="25.85" y="5.89" width="13.14" height="39.45" rx="0.65"></rect>
                <rect id="Rectangle" fill="#FFFFFF" x="25.69" y="9.98" width="8.74" height="1.93"></rect>
                <rect id="Rectangle" fill="#FFFFFF" x="25.69" y="14.05" width="8.74" height="1.93"></rect>
                <rect id="Rectangle" fill="#FFFFFF" x="25.69" y="18.12" width="8.74" height="1.93"></rect>
                <rect id="Rectangle" fill="#FFFFFF" x="25.69" y="41.61" width="8.74" height="1.93"></rect>
                <rect id="Rectangle" fill="#FFFFFF" x="41.76" y="22.44" width="6.8" height="1.93"></rect>
                <rect id="Rectangle" fill="#FFFFFF" x="41.76" y="25.84" width="6.8" height="1.93"></rect>
                <rect id="Rectangle" fill="#FFFFFF" x="41.76" y="41.61" width="6.8" height="1.93"></rect>
                <rect id="Rectangle" fill="#FFFFFF" x="21.07" y="22.19" width="1.93" height="1.93"></rect>
                <rect id="Rectangle" fill="#FFFFFF" x="21.07" y="25.61" width="1.93" height="1.93"></rect>
                <rect id="Rectangle" fill="#FFFFFF" x="53.31" y="41.42" width="1.93" height="1.93"></rect>
                <rect id="Rectangle" fill="#FFFFFF" x="21.07" y="29.04" width="1.93" height="1.93"></rect>
                <rect id="Rectangle" fill="#FFFFFF" x="10.36" y="36.54" width="1.93" height="1.93"></rect>
                <rect id="Rectangle" fill="#FFFFFF" x="14.61" y="36.54" width="1.93" height="1.93"></rect>
                <rect id="Rectangle" fill="#001950" x="36.26" y="0" width="1" height="6.29"></rect>
                <rect id="Rectangle" fill="#001950" x="34.71" y="2.01" width="1" height="4.28"></rect>
                <polygon id="Path" fill="#001950" points="30.83 5.89 28.97 5.89 28.97 4.44 30.83 3.49"></polygon>
                <polygon id="Path" fill="#7CAEF7" points="45.41 16.71 41.76 16.71 41.76 15.27 45.41 15.98"></polygon>
            </g>
        </g>
    </g>
</svg>