<?xml version="1.0" encoding="UTF-8"?>
<svg width="44px" height="35px" viewBox="0 0 44 35" version="1.1" xmlns="http://www.w3.org/2000/svg" xmlns:xlink="http://www.w3.org/1999/xlink">
    <title>D7981709-4086-4934-BA22-3865BF2B1873</title>
    <g id="Page-1" stroke="none" stroke-width="1" fill="none" fill-rule="evenodd">
        <g id="-packages" transform="translate(-1135.000000, -545.000000)" fill-rule="nonzero">
            <g id="city" transform="translate(1135.000000, 545.000000)">
                <rect id="Rectangle" fill="#001950" x="0" y="33.17" width="43.06" height="1.77" rx="0.88"></rect>
                <rect id="Rectangle" fill="#001950" x="9.07" y="9.25" width="17.54" height="22.34" rx="1.3"></rect>
                <path d="M17.43,0.16 C17.6625684,-0.0511152112 18.0174316,-0.0511152112 18.25,0.16 L24.4,6.05 L30,11.41 C30.1570191,11.5681888 30.2010297,11.8067662 30.1102407,12.0104877 C30.0194518,12.2142093 29.812757,12.3411534 29.59,12.33 L6.1,12.33 C5.87724296,12.3411534 5.67054823,12.2142093 5.57975928,12.0104877 C5.48897034,11.8067662 5.53298088,11.5681888 5.69,11.41 L11.28,6.05 L17.43,0.16 Z" id="Path" fill="#001950"></path>
                <rect id="Rectangle" fill="#FFFFFF" x="12.16" y="13.04" width="3.54" height="3.54"></rect>
                <rect id="Rectangle" fill="#FFFFFF" x="19.97" y="13.04" width="3.54" height="3.54"></rect>
                <rect id="Rectangle" fill="#FFFFFF" x="12.16" y="19.2" width="3.54" height="3.54"></rect>
                <rect id="Rectangle" fill="#FFFFFF" x="19.97" y="19.2" width="3.54" height="3.54"></rect>
                <rect id="Rectangle" fill="#FFFFFF" x="12.16" y="25.36" width="3.54" height="3.54"></rect>
                <rect id="Rectangle" fill="#FFFFFF" x="19.97" y="25.36" width="3.54" height="3.54"></rect>
                <rect id="Rectangle" fill="#7CAEF7" x="33.18" y="22.53" width="2.16" height="9.05" rx="0.46"></rect>
                <path d="M37.54,19.82 C37.6424705,21.739159 36.1782624,23.381929 34.26,23.5 C32.3471265,23.3767384 30.8916775,21.7337776 31,19.82 C31,17.82 34.27,12.98 34.27,12.98 C34.27,12.98 37.54,17.78 37.54,19.82 Z" id="Path" fill="#7CAEF7"></path>
            </g>
        </g>
    </g>
</svg>