<?xml version="1.0" encoding="UTF-8"?>
<svg width="527px" height="354px" viewBox="0 0 527 354" version="1.1" xmlns="http://www.w3.org/2000/svg" xmlns:xlink="http://www.w3.org/1999/xlink">
    <title>Group 67 Copy</title>
    <g id="Page-1" stroke="none" stroke-width="1" fill="none" fill-rule="evenodd">
        <g id="dashboard-property" transform="translate(-1184.000000, -1388.000000)">
            <g id="Group-69" transform="translate(30.000000, 1225.000000)">
                <g id="Group-61" transform="translate(1020.000000, 84.500000)">
                    <g id="Group-67-Copy" transform="translate(397.500000, 255.500000) scale(1, -1) translate(-397.500000, -255.500000) translate(134.000000, 78.500000)">
                        <g id="Group-64" transform="translate(0.000000, 0.000000)">
                            <rect id="Rectangle" fill="#ABCCFF" x="395.25" y="0" width="131.75" height="70.5"></rect>
                            <rect id="Rectangle-Copy-40" fill="#82B3FF" x="395.25" y="70.5" width="131.75" height="70.5"></rect>
                            <rect id="Rectangle-Copy-14" fill="#76AAFB" x="263.5" y="0" width="131.75" height="70.5"></rect>
                            <rect id="Rectangle-Copy-41" fill="#5493F6" x="263.5" y="70.5" width="131.75" height="70.5"></rect>
                            <rect id="Rectangle-Copy-37" fill="#5493F6" x="131.75" y="0" width="131.75" height="70.5"></rect>
                            <rect id="Rectangle-Copy-42" fill="#255BCF" x="131.75" y="70.5" width="131.75" height="70.5"></rect>
                            <rect id="Rectangle-Copy-39" fill="#3E75ED" x="0" y="0" width="131.75" height="70.5"></rect>
                            <rect id="Rectangle-Copy-43" fill="#1245B4" x="0" y="70.5" width="131.75" height="70.5"></rect>
                        </g>
                        <rect id="Rectangle-Copy-44" fill="#5493F6" x="395" y="141" width="132" height="71"></rect>
                        <g id="Group-63" transform="translate(0.000000, 212.000000)">
                            <rect id="Rectangle-Copy-48" fill="#1245B4" x="395.25" y="0" width="131.75" height="70.5"></rect>
                            <g id="Group-62" transform="translate(0.000000, 70.500000)">
                                <rect id="Rectangle-Copy-52" fill="#00319C" x="395.25" y="0" width="131.75" height="70.5"></rect>
                                <rect id="Rectangle-Copy-53" fill="#01287D" x="263.5" y="0" width="131.75" height="70.5"></rect>
                                <rect id="Rectangle-Copy-54" fill="#03205F" x="131.75" y="0" width="131.75" height="70.5"></rect>
                                <rect id="Rectangle-Copy-55" fill="#001137" x="0" y="0" width="131.75" height="70.5"></rect>
                            </g>
                            <rect id="Rectangle-Copy-49" fill="#00319C" x="263.5" y="0" width="131.75" height="70.5"></rect>
                            <rect id="Rectangle-Copy-50" fill="#002471" x="131.75" y="0" width="131.75" height="70.5"></rect>
                            <rect id="Rectangle-Copy-51" fill="#03205F" x="0" y="0" width="131.75" height="70.5"></rect>
                        </g>
                        <rect id="Rectangle-Copy-45" fill="#255BCF" x="263" y="141" width="132" height="71"></rect>
                        <rect id="Rectangle-Copy-46" fill="#00319C" x="132" y="141" width="132" height="71"></rect>
                        <rect id="Rectangle-Copy-47" fill="#01287D" x="0" y="141" width="132" height="71"></rect>
                    </g>
                </g>
            </g>
        </g>
    </g>
</svg>