<?xml version="1.0" encoding="UTF-8"?>
<svg width="114px" height="95px" viewBox="0 0 114 95" version="1.1" xmlns="http://www.w3.org/2000/svg" xmlns:xlink="http://www.w3.org/1999/xlink">
    <title>“</title>
    <g id="Page-1" stroke="none" stroke-width="1" fill="none" fill-rule="evenodd">
        <g id="homepage" transform="translate(-169.000000, -4218.000000)" fill="#F1F6FC" fill-rule="nonzero">
            <g id="Group-55" transform="translate(62.000000, 3908.000000)">
                <g id="Group-52" transform="translate(0.000000, 155.000000)">
                    <g id="Group-46-Copy" transform="translate(69.000000, 105.000000)">
                        <path d="M128.928571,145 C131.559524,145 134.241071,144.595314 136.973214,143.785942 C139.705357,142.976571 142.184524,141.711928 144.410714,139.992013 C146.636905,138.272098 148.458333,136.046326 149.875,133.314696 C151.291667,130.583067 152,127.294995 152,123.450479 C152,119.605964 151.291667,116.317891 149.875,113.586262 C148.458333,110.854633 146.738095,108.62886 144.714286,106.908946 C142.690476,105.189031 140.464286,103.924388 138.035714,103.115016 C135.607143,102.305644 133.279762,101.900958 131.053571,101.900958 C128.827381,101.900958 126.60119,102.103301 124.375,102.507987 C122.14881,102.912673 120.125,103.722045 118.303571,104.936102 C117.291667,103.924388 116.279762,102.406816 115.267857,100.383387 C114.255952,98.3599574 113.75,95.7294995 113.75,92.4920128 C113.75,85.2076677 116.684524,78.6821086 122.553571,72.9153355 C128.422619,67.1485623 136.315476,60.8253461 146.232143,53.9456869 L144.107143,50 C139.857143,52.8328009 135.202381,56.0197018 130.142857,59.5607029 C125.083333,63.1017039 120.428571,67.199148 116.178571,71.8530351 C111.928571,76.5069223 108.33631,81.8690096 105.401786,87.9392971 C102.467262,94.0095847 101,100.990415 101,108.881789 C101,120.415335 103.732143,129.318424 109.196429,135.591054 C114.660714,141.863685 121.238095,145 128.928571,145 Z M65.9285714,145 C68.5595238,145 71.2410714,144.595314 73.9732143,143.785942 C76.7053571,142.976571 79.1845238,141.711928 81.4107143,139.992013 C83.6369048,138.272098 85.4583333,136.046326 86.875,133.314696 C88.2916667,130.583067 89,127.294995 89,123.450479 C89,119.605964 88.2916667,116.317891 86.875,113.586262 C85.4583333,110.854633 83.7380952,108.62886 81.7142857,106.908946 C79.6904762,105.189031 77.4642857,103.924388 75.0357143,103.115016 C72.6071429,102.305644 70.2797619,101.900958 68.0535714,101.900958 C65.827381,101.900958 63.6011905,102.103301 61.375,102.507987 C59.1488095,102.912673 57.125,103.722045 55.3035714,104.936102 C54.2916667,103.924388 53.2797619,102.406816 52.2678571,100.383387 C51.2559524,98.3599574 50.75,95.7294995 50.75,92.4920128 C50.75,85.2076677 53.6845238,78.6821086 59.5535714,72.9153355 C65.422619,67.1485623 73.3154762,60.8253461 83.2321429,53.9456869 L81.1071429,50 C76.8571429,52.8328009 72.202381,56.0197018 67.1428571,59.5607029 C62.0833333,63.1017039 57.4285714,67.199148 53.1785714,71.8530351 C48.9285714,76.5069223 45.3363095,81.8690096 42.4017857,87.9392971 C39.4672619,94.0095847 38,100.990415 38,108.881789 C38,120.415335 40.7321429,129.318424 46.1964286,135.591054 C51.6607143,141.863685 58.2380952,145 65.9285714,145 Z" id="“"></path>
                    </g>
                </g>
            </g>
        </g>
    </g>
</svg>